<svg version="1.1" id="interactive-skill" xmlns="http://www.w3.org/2000/svg" xmlns:xlink="http://www.w3.org/1999/xlink" x="0px" y="0px" width="89px" height="90px" viewBox="0 0 89 90" enable-background="new 0 0 89 90" xml:space="preserve"><g id="button_bg" opacity="0" style="opacity: 0;"><path fill="#00D9B3" d="M25.7,41.7c-12.4,0-22.6,10.1-22.6,22.6s10.1,22.6,22.6,22.6c12.4,0,22.6-10.1,22.6-22.6
                			S38.2,41.7,25.7,41.7z"></path></g><g id="infobutton"><path fill="#00D9B3" d="M25.7,89.9c-14.1,0-25.6-11.5-25.6-25.6c0-14.1,11.5-25.6,25.6-25.6c14.1,0,25.6,11.5,25.6,25.6
                			C51.3,78.4,39.8,89.9,25.7,89.9z M25.7,41.7c-12.4,0-22.6,10.1-22.6,22.6s10.1,22.6,22.6,22.6c12.4,0,22.6-10.1,22.6-22.6
                			S38.2,41.7,25.7,41.7z"></path><path fill="#00D9B3" d="M42.5,64.3c0,9.3-7.5,16.8-16.8,16.8C16.4,81.1,9,73.6,9,64.3s7.5-16.8,16.8-16.8
                			C35.1,47.5,42.5,55,42.5,64.3"></path><path fill="#00D9B3" d="M25.7,82.6c-10.1,0-18.3-8.2-18.3-18.3C7.5,54.2,15.7,46,25.7,46S44,54.2,44,64.3
                			C44,74.4,35.8,82.6,25.7,82.6z M25.7,49.1c-8.4,0-15.3,6.8-15.3,15.3s6.8,15.3,15.3,15.3S41,72.7,41,64.3
                			C41,55.9,34.1,49.1,25.7,49.1z"></path><path fill="#FFFFFF" d="M25.7,74.7c-1.2,0-2.2-1-2.2-2.2V62c0-1.2,1-2.2,2.2-2.2c1.2,0,2.2,1,2.2,2.2v10.4
                			C28,73.7,27,74.7,25.7,74.7z"></path><path fill="#FFFFFF" d="M25.7,57.7c-0.6,0-1.2-0.2-1.6-0.7c-0.4-0.4-0.7-1-0.7-1.6c0-0.6,0.2-1.2,0.7-1.6c0.8-0.8,2.3-0.8,3.1,0
                			c0.4,0.4,0.7,1,0.7,1.6c0,0.6-0.2,1.2-0.7,1.6C26.9,57.5,26.3,57.7,25.7,57.7z"></path></g><g id="finger" style="transform: matrix(1, 0, 0, 1, 0, 0);"><path fill="#FFFFFF" d="M59,1.6L35.4,25.2c-8.1,8.1-8.1,21.3,0,29.4c8.1,8.1,21.3,8.1,29.4,0l22.5-22.5"></path><path fill="#00D9B3" d="M50.1,62.2c-5.7,0-11.4-2.2-15.8-6.5c-8.7-8.7-8.7-22.8,0-31.5L57.9,0.6C58.5,0,59.5,0,60,0.6
                			c0.6,0.6,0.6,1.5,0,2.1L36.5,26.3C29,33.8,29,46,36.5,53.5s19.8,7.5,27.3,0L86.3,31c0.6-0.6,1.5-0.6,2.1,0c0.6,0.6,0.6,1.5,0,2.1
                			L65.9,55.7C61.6,60,55.8,62.2,50.1,62.2z"></path><path fill="#00D9B3" d="M50.2,56.3c-4.4,0-8.5-1.7-11.6-4.8s-4.8-7.2-4.8-11.6s1.7-8.5,4.8-11.6c3.1-3.1,7.2-4.8,11.6-4.8
                			c4.4,0,8.5,1.7,11.6,4.8c6.4,6.4,6.4,16.8,0,23.2C58.7,54.6,54.6,56.3,50.2,56.3z M50.2,26.4c-3.6,0-7,1.4-9.5,3.9
                			s-3.9,5.9-3.9,9.5c0,3.6,1.4,7,3.9,9.5s5.9,3.9,9.5,3.9c3.6,0,7-1.4,9.5-3.9c5.2-5.2,5.2-13.7,0-19C57.1,27.8,53.8,26.4,50.2,26.4z
                			"></path><path fill="#00D9B3" d="M78.2,24.1c-0.4,0-0.8-0.1-1.1-0.4L65.9,12.5c-0.6-0.6-0.6-1.5,0-2.1c0.6-0.6,1.5-0.6,2.1,0l11.2,11.2
                			c0.6,0.6,0.6,1.5,0,2.1C78.9,23.9,78.6,24.1,78.2,24.1z"></path><path fill="#00D9B3" d="M83.8,18.5c-0.4,0-0.8-0.1-1.1-0.4L71.5,6.9c-0.6-0.6-0.6-1.5,0-2.1c0.6-0.6,1.5-0.6,2.1,0L84.8,16
                			c0.6,0.6,0.6,1.5,0,2.1C84.5,18.4,84.2,18.5,83.8,18.5z"></path></g></svg>