<svg xmlns="http://www.w3.org/2000/svg" viewBox="0 0 881.73 398.9"><defs><style>.cls-1,.cls-2{fill: #7AF6D1;}.cls-2{fill-rule:evenodd;}</style></defs><title>Asset 6-grey</title><g id="Layer_2" data-name="Layer 2"><g id="Layer_1-2" data-name="Layer 1"><polygon class="cls-1" points="434.56 288.14 394.24 265.95 322.14 123.56 323.24 227.89 296.17 212.98 295.03 77.29 334.9 95.7 403.22 227.62 402.97 127.12 434.55 141.53 434.56 288.14"/><polygon class="cls-1" points="447.21 288.13 446.81 141.54 480.22 126.15 480.38 184.06 557.35 145.85 557.21 90.69 586.35 77.27 586.69 211.46 557.56 227.46 557.42 172.92 480.46 212.47 480.62 269.73 447.21 288.13"/><path class="cls-1" d="M440.73,0,579.25,53.77c3.24,1.25,1.83,3.64-2.16,3.64H524.5a37.88,37.88,0,0,1-13.95-2.63L440.73,26.71l-69.54,28a35.36,35.36,0,0,1-13.47,2.43H305.16c-4,0-5.4-2.39-2.17-3.63Z"/><path class="cls-1" d="M440.73,133.86l-141.2-64.7c-2.84-1.29-.55-3.74,3.48-3.74h53.11a34.28,34.28,0,0,1,13.62,2.69l71,31.24,70.72-31.12a32,32,0,0,1,13.18-2.49h53.13c4,0,6.32,2.45,3.48,3.74Z"/><path class="cls-2" d="M699.34,351.15H650.87a28.44,28.44,0,0,0-7.72.74q-4.56,1.42-5.36,7.07a61.87,61.87,0,0,0-.43,8.46,35.8,35.8,0,0,0,1.09,10.06,7.29,7.29,0,0,0,5.18,5.14,26.56,26.56,0,0,0,7,.74h48.79l0,15.49H647.93a80.13,80.13,0,0,1-13.95-1q-8.65-1.51-12.48-8.3a23.51,23.51,0,0,1-2.45-8.17,109.23,109.23,0,0,1-.83-13.86,110.59,110.59,0,0,1,.86-15.73A18,18,0,0,1,624,341.55a15.17,15.17,0,0,1,8.17-4.41,69.58,69.58,0,0,1,13-.92h54Z"/><polygon class="cls-1" points="581.3 336.22 614.88 398.87 593.9 398.87 569.04 351.55 552.18 383.37 543.97 398.87 531.68 398.87 522.76 398.87 557.16 336.22 581.3 336.22"/><path class="cls-1" d="M711.92,398.9l-.23-62.68h19.13l.23,62.68Zm29.52-39.28,25.75-23.4h26.15l-35.8,31,39.55,31.72H769.43l-27.94-24.06Z"/><polygon class="cls-1" points="430.12 398.87 429.89 336.22 449.03 336.22 449.12 361.48 496.36 361.48 496.27 336.22 515.41 336.22 515.64 398.87 496.5 398.87 496.41 373.89 449.17 373.88 449.26 398.87 430.12 398.87"/><path class="cls-2" d="M806.13,385.52c.45,0,24.66.07,25.17.1q6.66.27,18.45,0,8.7-.14,11.09-1.36a4.3,4.3,0,0,0,2.25-4.21q0-4.08-3.19-5.13a23,23,0,0,0-6.31-.68l-5.45,0h-17q-6.95,0-12-.46-8.21-.67-11.67-5.2-3-4-3-12.67t2.81-12.58a12.62,12.62,0,0,1,5.73-4.35q5.43-2.13,16.65-2.58,4.39-.18,12.58-.18c3,0,33.83,0,36.24,0l.05,13.26c-1.11,0-30.52,0-31.81,0q-11.14,0-17.07.41c-2.93.21-4.79.81-5.6,1.8a5.05,5.05,0,0,0-1,3.28c0,2.58,1.36,4.22,4,4.91a51.19,51.19,0,0,0,7.56.45h17.52q4.62,0,13.17.45,9.85.5,13.41,5.57,3,4.35,3.08,12.68,0,10.41-4.57,14.8-3.46,3.3-11.75,4.16-8.88.92-23.36.91c-4.6,0-32.38,0-35.87-.11Z"/><polygon class="cls-1" points="91.69 398.9 66.83 398.9 19.11 351.6 19.87 398.88 0.82 398.88 0 336.2 27.88 336.2 72.47 379.68 72.31 336.2 91.46 336.2 91.69 398.9"/><polygon class="cls-2" points="243.5 398.88 243.27 336.2 262.42 336.2 262.65 398.88 243.5 398.88"/><polygon class="cls-1" points="167.59 394.86 156.7 384.79 122.92 352.61 123.68 398.88 104.7 398.88 103.87 336.2 131.69 336.2 167.5 371.12 203.05 336.2 230.87 336.2 231.09 398.88 212.1 398.88 211.94 352.61 178.4 384.79 167.59 394.86"/><polygon class="cls-1" points="311.2 398.88 311.03 351.43 309.49 351.43 274.89 351.43 274.83 336.22 365.95 336.22 366 351.43 333.14 351.43 329.86 351.43 330.03 398.88 311.2 398.88"/></g></g></svg>