<svg xmlns="http://www.w3.org/2000/svg" viewBox="0 0 832.38 111.14"><defs><style>.cls-1,.cls-2{fill:#7AF6D1;}.cls-2{fill-rule:evenodd;}</style></defs><title>Asset 5-grey</title><g id="Layer_2" data-name="Layer 2"><g id="Layer_1-2" data-name="Layer 1"><polygon class="cls-1" points="53.48 111.14 38.03 102.58 10.39 47.66 10.81 87.9 0.44 82.15 0 29.81 15.28 36.91 41.47 87.79 41.37 49.03 53.48 54.59 53.48 111.14"/><polygon class="cls-1" points="58.33 111.13 58.17 54.59 70.98 48.66 71.04 70.99 100.55 56.25 100.49 34.98 111.66 29.8 111.79 81.56 100.63 87.73 100.57 66.7 71.07 81.95 71.13 104.03 58.33 111.13"/><path class="cls-1" d="M55.85,0l53.09,20.74c1.24.48.7,1.4-.83,1.4H88a14.44,14.44,0,0,1-5.35-1L55.84,10.3,29.19,21.09A13.45,13.45,0,0,1,24,22H3.88c-1.53,0-2.07-.92-.83-1.4Z"/><path class="cls-1" d="M55.84,51.63l-54.12-25c-1.09-.49-.21-1.44,1.34-1.44H23.41a13.06,13.06,0,0,1,5.23,1L55.85,38.32l27.1-12a12.24,12.24,0,0,1,5.06-1h20.36c1.54,0,2.42.95,1.33,1.45Z"/><path class="cls-2" d="M690.62,42.74H653a21.71,21.71,0,0,0-6,.58c-2.37.74-3.75,2.58-4.17,5.53a48.87,48.87,0,0,0-.33,6.61,28.05,28.05,0,0,0,.84,7.87,5.7,5.7,0,0,0,4,4,20.72,20.72,0,0,0,5.47.57h37.92l0,12.12h-40.1a62.12,62.12,0,0,1-10.84-.79q-6.72-1.19-9.7-6.49a18.33,18.33,0,0,1-1.9-6.39,85.31,85.31,0,0,1-.65-10.84,88.88,88.88,0,0,1,.67-12.31,14.12,14.12,0,0,1,3.85-8,11.74,11.74,0,0,1,6.35-3.45,53.43,53.43,0,0,1,10.12-.72h42Z"/><polygon class="cls-1" points="598.88 31.06 624.97 80.06 608.67 80.06 589.35 43.05 576.24 67.94 569.86 80.06 560.31 80.06 553.38 80.06 580.12 31.06 598.88 31.06"/><path class="cls-1" d="M700.4,80.09l-.18-49h14.87l.18,49Zm22.94-30.73,20-18.3h20.32L735.86,55.28,766.6,80.09H745.1L723.39,61.27Z"/><polygon class="cls-1" points="481.37 80.06 481.19 31.06 496.07 31.06 496.14 50.82 532.86 50.82 532.79 31.06 547.66 31.06 547.84 80.06 532.96 80.06 532.89 60.52 496.17 60.52 496.25 80.06 481.37 80.06"/><path class="cls-2" d="M773.62,69.62c.36,0,19.17.06,19.57.08q5.17.21,14.34,0c4.5-.07,7.38-.42,8.62-1.06a3.36,3.36,0,0,0,1.75-3.29q0-3.19-2.48-4a18,18,0,0,0-4.91-.53l-4.23,0H793.05q-5.4,0-9.34-.36-6.37-.52-9.06-4.07-2.34-3.15-2.37-9.91t2.19-9.84a9.71,9.71,0,0,1,4.45-3.4q4.22-1.66,12.94-2,3.42-.15,9.78-.15c2.29,0,26.29,0,28.17,0l0,10.38c-.86,0-23.72,0-24.72,0q-8.65,0-13.27.32c-2.27.17-3.72.63-4.35,1.41a4,4,0,0,0-.8,2.57,3.69,3.69,0,0,0,3.14,3.84,40.31,40.31,0,0,0,5.88.35h13.62q3.58,0,10.23.35,7.66.39,10.42,4.36,2.37,3.39,2.39,9.91,0,8.14-3.54,11.58-2.7,2.58-9.14,3.26-6.9.7-18.16.71c-3.57,0-25.16,0-27.88-.09Z"/><polygon class="cls-1" points="218.32 80.08 199 80.08 161.91 43.09 162.5 80.08 147.69 80.08 147.06 31.05 168.73 31.05 203.38 65.06 203.26 31.05 218.15 31.05 218.32 80.08"/><polygon class="cls-2" points="336.31 80.08 336.14 31.05 351.02 31.05 351.2 80.08 336.31 80.08"/><polygon class="cls-1" points="277.31 76.92 268.85 69.05 242.6 43.88 243.19 80.08 228.44 80.08 227.79 31.05 249.41 31.05 277.24 58.36 304.88 31.05 326.5 31.05 326.67 80.08 311.92 80.08 311.78 43.88 285.72 69.05 277.31 76.92"/><polygon class="cls-1" points="388.94 80.08 388.8 42.96 387.61 42.96 360.71 42.96 360.67 31.06 431.49 31.06 431.54 42.96 405.99 42.96 403.44 42.96 403.57 80.08 388.94 80.08"/></g></g></svg>